<svg xmlns="http://www.w3.org/2000/svg" viewBox="0 0 6000 2553"><filter id="b"><feGaussianBlur stdDeviation="12" /></filter><path d="M0 0h6e3v2553H0z" fill="#5d6c6c" /><g filter="url(#b)" transform="scale(23.437500) translate(0.5 0.5)"><g transform="translate(123.984337 0.000000) rotate(362.789368) scale(131.078795 47.242228)"><ellipse fill="#a6feff" fill-opacity=".501961" cx="0" cy="0" rx="1" ry="1" /></g><g transform="translate(27.322075 74.991919) rotate(297.060229) scale(39.006736 152.560115)"><ellipse fill="#140000" fill-opacity=".501961" cx="0" cy="0" rx="1" ry="1" /></g><g transform="translate(233.061992 84.490194) rotate(263.158557) scale(37.579996 90.723514)"><ellipse fill="#2b0600" fill-opacity=".501961" cx="0" cy="0" rx="1" ry="1" /></g><g transform="translate(130.573708 81.250708) rotate(282.195564) scale(18.568729 77.158391)"><ellipse fill="#7c5a46" fill-opacity=".501961" cx="0" cy="0" rx="1" ry="1" /></g><g transform="translate(130.173785 20.236608) rotate(158.104665) scale(68.682469 26.110191)"><ellipse fill="#a3d0dd" fill-opacity=".501961" cx="0" cy="0" rx="1" ry="1" /></g><g transform="translate(0.000000 73.245296) rotate(361.806623) scale(29.204376 50.980059)"><ellipse fill="#000a00" fill-opacity=".501961" cx="0" cy="0" rx="1" ry="1" /></g><g transform="translate(30.493475 0.000000) rotate(75.788239) scale(17.065793 67.860890)"><ellipse fill="#1d9fb5" fill-opacity=".501961" cx="0" cy="0" rx="1" ry="1" /></g><g transform="translate(50 42) rotate(268) scale(21 30)"><path d="M0 0h6e3v2553H0z" fill="#37280d" /></g></g></svg>