<svg xmlns="http://www.w3.org/2000/svg" viewBox="0 0 6000 4000"><filter id="b"><feGaussianBlur stdDeviation="12" /></filter><path d="M0 0h6e3v4e3H0z" fill="#544f46" /><g filter="url(#b)" transform="scale(23.437500) translate(0.5 0.5)"><ellipse fill="#b0a694" fill-opacity=".501961" cx="102" cy="57" rx="101" ry="38" /><g transform="translate(93.115836 139.372723) rotate(278.661916) scale(82.590405 32.236870)"><ellipse fill="#00001e" fill-opacity=".501961" cx="0" cy="0" rx="1" ry="1" /></g><g transform="translate(174 81) rotate(296) scale(69 41)"><path d="M0 0h6e3v4e3H0z" fill="#f4cc9d" /></g><g transform="translate(233.538141 126.486790) rotate(109.239281) scale(81.772279 39.916364)"><ellipse fill="#231200" fill-opacity=".501961" cx="0" cy="0" rx="1" ry="1" /></g><ellipse fill="#000" fill-opacity=".501961" cx="32" cy="1" rx="77" ry="27" /><g transform="translate(124.089602 30.552616) rotate(304.094543) scale(25.487859 17.834562)"><ellipse fill="#63a8ff" fill-opacity=".501961" cx="0" cy="0" rx="1" ry="1" /></g><ellipse fill="#ffe274" fill-opacity=".501961" cx="35" cy="37" rx="57" ry="8" /><g transform="translate(2.952885 149.699331) rotate(198.788550) scale(17.339485 29.855031)"><ellipse fill="#f54f00" fill-opacity=".501961" cx="0" cy="0" rx="1" ry="1" /></g></g></svg>