<svg xmlns="http://www.w3.org/2000/svg" viewBox="0 0 5186 2207"><filter id="b"><feGaussianBlur stdDeviation="12" /></filter><path d="M0 0h5186v2207H0z" fill="#50505d" /><g filter="url(#b)" transform="scale(20.257812) translate(0.5 0.5)"><g transform="translate(154.498582 15.982054) rotate(183.074430) scale(139.926323 37.661186)"><ellipse fill="#eb9d88" fill-opacity=".501961" cx="0" cy="0" rx="1" ry="1" /></g><g transform="translate(92.445712 87.571280) rotate(2.311667) scale(255.000000 25.198456)"><ellipse fill="#000028" fill-opacity=".501961" cx="0" cy="0" rx="1" ry="1" /></g><g transform="translate(136.441891 64.831420) rotate(89.689080) scale(18.812143 73.136075)"><ellipse fill="#3493b1" fill-opacity=".501961" cx="0" cy="0" rx="1" ry="1" /></g><g transform="translate(24.406001 83.843051) rotate(291.608439) scale(31.894057 108.029114)"><ellipse fill="#00001e" fill-opacity=".501961" cx="0" cy="0" rx="1" ry="1" /></g><g transform="translate(211.811423 95.868917) rotate(333.060215) scale(98.969608 25.956380)"><ellipse fill="#000014" fill-opacity=".501961" cx="0" cy="0" rx="1" ry="1" /></g><g transform="translate(150.741355 11.549007) rotate(91.446498) scale(19.585629 65.266700)"><ellipse fill="#dd947d" fill-opacity=".501961" cx="0" cy="0" rx="1" ry="1" /></g><g transform="translate(32.290006 25.087179) rotate(-79.800790) scale(20.837187 172.044537)"><ellipse fill="#7c6f7b" fill-opacity=".501961" cx="0" cy="0" rx="1" ry="1" /></g><ellipse fill="#00102f" fill-opacity=".501961" cx="134" cy="96" rx="255" ry="13" /></g></svg>