<svg xmlns="http://www.w3.org/2000/svg" viewBox="0 0 5588 3143"><filter id="b"><feGaussianBlur stdDeviation="12" /></filter><path d="M0 0h5588v3143H0z" fill="#857e69" /><g filter="url(#b)" transform="scale(21.828125) translate(0.5 0.5)"><g transform="translate(20.496635 43.366265) rotate(186.772325) scale(33.060000 86.914988)"><ellipse fill="#040000" fill-opacity=".501961" cx="0" cy="0" rx="1" ry="1" /></g><g transform="translate(220.788702 112.573968) rotate(191.067639) scale(65.344756 46.145356)"><ellipse fill="#ffeab1" fill-opacity=".501961" cx="0" cy="0" rx="1" ry="1" /></g><ellipse fill="#e9ece2" fill-opacity=".501961" cx="124" cy="97" rx="94" ry="12" /><g transform="translate(89.667655 27.863945) rotate(92.523023) scale(12.941124 38.443060)"><ellipse fill="#000" fill-opacity=".501961" cx="0" cy="0" rx="1" ry="1" /></g><path d="M0 0h5588v3143H0z" fill="#040607" /><ellipse fill="#f2c188" fill-opacity=".501961" cx="55" cy="55" rx="24" ry="16" /><ellipse fill="#ffffd1" fill-opacity=".501961" cx="145" cy="139" rx="102" ry="5" /><g transform="translate(207 3) rotate(114) scale(29 40)"><path d="M0 0h5588v3143H0z" fill="#000" /></g></g></svg>