<svg xmlns="http://www.w3.org/2000/svg" viewBox="0 0 6000 2553"><filter id="b"><feGaussianBlur stdDeviation="12" /></filter><path d="M0 0h6e3v2553H0z" fill="#565b5c" /><g filter="url(#b)" transform="scale(23.437500) translate(0.5 0.5)"><g transform="translate(172.490482 3.253954) rotate(151.843633) scale(67.339413 29.220590)"><ellipse fill="#ede8d5" fill-opacity=".501961" cx="0" cy="0" rx="1" ry="1" /></g><g transform="translate(28.276215 81.384005) rotate(296.478520) scale(34.013524 253.496035)"><ellipse fill="#000001" fill-opacity=".501961" cx="0" cy="0" rx="1" ry="1" /></g><g transform="translate(61.565475 21.272383) rotate(237.712281) scale(30.878283 25.683778)"><ellipse fill="#d1ecff" fill-opacity=".501961" cx="0" cy="0" rx="1" ry="1" /></g><ellipse fill="#001028" fill-opacity=".501961" cx="195" cy="95" rx="81" ry="20" /><g transform="translate(207.086823 25.611350) rotate(-12.313301) scale(30.232433 9.383240)"><ellipse fill="#ffcc38" fill-opacity=".501961" cx="0" cy="0" rx="1" ry="1" /></g><ellipse fill="#968376" fill-opacity=".501961" cx="136" cy="53" rx="62" ry="24" /><g transform="translate(4.463510 0.000000) rotate(266.973376) scale(48.007439 14.246795)"><ellipse fill="#000" fill-opacity=".501961" cx="0" cy="0" rx="1" ry="1" /></g><g transform="translate(43.374601 82.678541) rotate(161.247586) scale(17.525666 30.862674)"><ellipse fill="#000" fill-opacity=".501961" cx="0" cy="0" rx="1" ry="1" /></g></g></svg>