<svg xmlns="http://www.w3.org/2000/svg" viewBox="0 0 6000 3375"><filter id="b"><feGaussianBlur stdDeviation="12" /></filter><path d="M0 0h6e3v3375H0z" fill="#8e7e76" /><g filter="url(#b)" transform="scale(23.437500) translate(0.5 0.5)"><ellipse fill="#fff" fill-opacity=".501961" cx="108" cy="135" rx="120" ry="56" /><g transform="translate(214.730231 42.649862) rotate(301.067807) scale(52.167996 141.606438)"><ellipse fill="#2d0300" fill-opacity=".501961" cx="0" cy="0" rx="1" ry="1" /></g><g transform="translate(29.261266 53.870777) rotate(255.259778) scale(35.474461 117.430900)"><ellipse fill="#330f00" fill-opacity=".501961" cx="0" cy="0" rx="1" ry="1" /></g><g transform="translate(99.123138 99.148975) rotate(55.039809) scale(28.121800 72.362871)"><ellipse fill="#ffe" fill-opacity=".501961" cx="0" cy="0" rx="1" ry="1" /></g><g transform="translate(173.691455 141.824947) rotate(94.120489) scale(23.628986 244.198922)"><ellipse fill="#f4fef7" fill-opacity=".501961" cx="0" cy="0" rx="1" ry="1" /></g><ellipse fill="#51646a" fill-opacity=".501961" cx="202" cy="109" rx="46" ry="15" /><g transform="translate(49.585551 0.000000) rotate(355.395625) scale(138.045979 14.408551)"><ellipse fill="#51a2e8" fill-opacity=".501961" cx="0" cy="0" rx="1" ry="1" /></g><path d="M0 0h6e3v3375H0z" fill="#ffebce" /></g></svg>