<svg xmlns="http://www.w3.org/2000/svg" viewBox="0 0 6000 2553"><filter id="b"><feGaussianBlur stdDeviation="12" /></filter><path d="M0 0h6e3v2553H0z" fill="#494d41" /><g filter="url(#b)" transform="scale(23.437500) translate(0.5 0.5)"><g transform="translate(69.890576 37.401887) rotate(180.239569) scale(19.478566 47.514576)"><ellipse fill="#e7f7fb" fill-opacity=".501961" cx="0" cy="0" rx="1" ry="1" /></g><g transform="translate(239.334112 38.667195) rotate(140.009180) scale(53.832639 84.384626)"><ellipse fill="#000800" fill-opacity=".501961" cx="0" cy="0" rx="1" ry="1" /></g><g transform="translate(16.893245 50.735478) rotate(8.524801) scale(28.113751 7.967434)"><ellipse fill="#ffffeb" fill-opacity=".501961" cx="0" cy="0" rx="1" ry="1" /></g><path d="M0 0h6e3v2553H0z" fill="#cddcff" /><path d="M0 0h6e3v2553H0z" fill="#f8efb7" /><path d="M0 0h6e3v2553H0z" fill="#efd5e6" /><g transform="translate(7.985962 83.748081) rotate(395.148536) scale(21.103626 26.489819)"><ellipse fill="#000216" fill-opacity=".501961" cx="0" cy="0" rx="1" ry="1" /></g><g transform="translate(125.456281 53.220860) rotate(202.824792) scale(15.199709 64.220127)"><ellipse fill="#0e161e" fill-opacity=".501961" cx="0" cy="0" rx="1" ry="1" /></g></g></svg>