<svg xmlns="http://www.w3.org/2000/svg" viewBox="0 0 6000 2553"><filter id="b"><feGaussianBlur stdDeviation="12" /></filter><path d="M0 0h6e3v2553H0z" fill="#54453d" /><g filter="url(#b)" transform="scale(23.437500) translate(0.5 0.5)"><ellipse fill="#cdffff" fill-opacity=".501961" cx="61" cy="0" rx="146" ry="18" /><g transform="translate(230.749457 56.994447) rotate(-0.243404) scale(26.629864 97.896517)"><ellipse fill="#000" fill-opacity=".501961" cx="0" cy="0" rx="1" ry="1" /></g><g transform="translate(139.928143 71.549389) rotate(97.038746) scale(21.690141 68.938944)"><ellipse fill="#ff7f09" fill-opacity=".501961" cx="0" cy="0" rx="1" ry="1" /></g><ellipse fill="#000" fill-opacity=".501961" cx="57" cy="93" rx="85" ry="17" /><g transform="translate(153.372458 29.766198) rotate(-22.486932) scale(55.487033 22.681016)"><ellipse fill="#6a7e9b" fill-opacity=".501961" cx="0" cy="0" rx="1" ry="1" /></g><g transform="translate(229.237085 67.399703) rotate(179.304948) scale(27.801004 189.183552)"><ellipse fill="#000" fill-opacity=".501961" cx="0" cy="0" rx="1" ry="1" /></g><g transform="translate(75.529310 37.157420) rotate(167.159164) scale(55.129863 8.176042)"><ellipse fill="#00002d" fill-opacity=".501961" cx="0" cy="0" rx="1" ry="1" /></g><ellipse fill="#d1f9ff" fill-opacity=".501961" cx="99" cy="2" rx="70" ry="9" /></g></svg>