<svg xmlns="http://www.w3.org/2000/svg" viewBox="0 0 6000 2553"><filter id="b"><feGaussianBlur stdDeviation="12" /></filter><path d="M0 0h6e3v2553H0z" fill="#62645b" /><g filter="url(#b)" transform="scale(23.437500) translate(0.5 0.5)"><g transform="translate(237 56) rotate(0) scale(73 53)"><path d="M0 0h6e3v2553H0z" fill="#ead4a4" /></g><g transform="translate(131.650475 77.838904) rotate(166.753863) scale(71.880004 18.830112)"><ellipse fill="#000" fill-opacity=".501961" cx="0" cy="0" rx="1" ry="1" /></g><ellipse fill="#57b6eb" fill-opacity=".501961" cx="49" cy="52" rx="83" ry="12" /><ellipse fill="#d8dbc5" fill-opacity=".501961" cx="179" cy="6" rx="52" ry="8" /><ellipse fill="#ed9e0d" fill-opacity=".501961" cx="97" cy="67" rx="32" ry="8" /><ellipse fill="#eccfa1" fill-opacity=".501961" cx="13" cy="0" rx="41" ry="19" /><g transform="translate(93.615942 30.803830) rotate(362.695546) scale(100.397969 12.485810)"><ellipse fill="#2d2d2c" fill-opacity=".501961" cx="0" cy="0" rx="1" ry="1" /></g><path d="M0 0h6e3v2553H0z" fill="#000" /></g></svg>