<svg xmlns="http://www.w3.org/2000/svg" viewBox="0 0 5714 3214"><filter id="b"><feGaussianBlur stdDeviation="12" /></filter><path d="M0 0h5714v3214H0z" fill="#393939" /><g filter="url(#b)" transform="scale(22.320312) translate(0.5 0.5)"><g transform="translate(151.421357 65.991456) rotate(298.858816) scale(37.175663 51.273126)"><ellipse fill="#ededed" fill-opacity=".501961" cx="0" cy="0" rx="1" ry="1" /></g><g transform="translate(54.909695 127.211980) rotate(277.541793) scale(37.611699 82.234247)"><ellipse fill="#000" fill-opacity=".501961" cx="0" cy="0" rx="1" ry="1" /></g><g transform="translate(237.705169 54.982748) rotate(-7.421003) scale(26.778652 225.320853)"><ellipse fill="#000" fill-opacity=".501961" cx="0" cy="0" rx="1" ry="1" /></g><g transform="translate(146.373270 62.631432) rotate(-55.610101) scale(30.813210 20.927840)"><ellipse fill="#d2d2d2" fill-opacity=".501961" cx="0" cy="0" rx="1" ry="1" /></g><g transform="translate(216 134) rotate(194) scale(110 41)"><path d="M0 0h5714v3214H0z" fill="#020202" /></g><ellipse fill="#1c1c1c" fill-opacity=".501961" cx="1" cy="16" rx="81" ry="81" /><g transform="translate(67.873708 129.273167) rotate(277.711446) scale(28.312434 65.665959)"><ellipse fill="#000" fill-opacity=".501961" cx="0" cy="0" rx="1" ry="1" /></g><path d="M0 0h5714v3214H0z" fill="#6d6d6d" /></g></svg>