<svg xmlns="http://www.w3.org/2000/svg" viewBox="0 0 4150 1766"><filter id="b"><feGaussianBlur stdDeviation="12" /></filter><path d="M0 0h4150v1766H0z" fill="#71563d" /><g filter="url(#b)" transform="scale(16.210938) translate(0.5 0.5)"><ellipse fill="#000005" fill-opacity=".501961" cx="134" cy="9" rx="26" ry="79" /><g transform="translate(248.249173 27.643971) rotate(76.806767) scale(44.286122 29.251291)"><ellipse fill="#dccdbd" fill-opacity=".501961" cx="0" cy="0" rx="1" ry="1" /></g><ellipse fill="#c78b57" fill-opacity=".501961" cx="35" cy="21" rx="41" ry="41" /><ellipse fill="#e9c79b" fill-opacity=".501961" cx="210" cy="72" rx="17" ry="21" /><g transform="translate(100.647488 32.091976) rotate(273.626510) scale(7.362552 25.105093)"><ellipse fill="#ffa30b" fill-opacity=".501961" cx="0" cy="0" rx="1" ry="1" /></g><g transform="translate(86.085149 86.923746) rotate(321.231663) scale(65.880014 19.620742)"><ellipse fill="#211810" fill-opacity=".501961" cx="0" cy="0" rx="1" ry="1" /></g><g transform="translate(11.349992 107.000000) rotate(-26.380760) scale(35.736211 14.925447)"><ellipse fill="#ffa535" fill-opacity=".501961" cx="0" cy="0" rx="1" ry="1" /></g><g transform="translate(168 107) rotate(265) scale(48 41)"><path d="M0 0h4150v1766H0z" fill="#130f03" /></g></g></svg>