<svg xmlns="http://www.w3.org/2000/svg" viewBox="0 0 4930 2098"><filter id="b"><feGaussianBlur stdDeviation="12" /></filter><path d="M0 0h4930v2098H0z" fill="#423f43" /><g filter="url(#b)" transform="scale(19.257812) translate(0.5 0.5)"><g transform="translate(81.432745 79.235887) rotate(283.747893) scale(95.824844 27.525127)"><ellipse fill="#ffad98" fill-opacity=".501961" cx="0" cy="0" rx="1" ry="1" /></g><ellipse fill="#000" fill-opacity=".501961" cx="246" cy="55" rx="58" ry="58" /><g transform="translate(9.565579 39.343618) rotate(17.004811) scale(35.856626 137.155224)"><ellipse fill="#000" fill-opacity=".501961" cx="0" cy="0" rx="1" ry="1" /></g><path fill="#61c3fb" fill-opacity=".501961" d="M194.63841 33.092615 187.339182 11.311791 160.345871 51.057262 179.050021 97.811105z" /><g transform="translate(67.005436 78.381949) rotate(265.921690) scale(27.978715 19.044809)"><ellipse fill="#d8ceb4" fill-opacity=".501961" cx="0" cy="0" rx="1" ry="1" /></g><path fill="#9f3029" fill-opacity=".501961" d="M118.523351 114.315368 120.153541 27.905034 95.805765 22.421247 90.08646 117.475111z" /><path fill="#f1fffc" fill-opacity=".501961" d="M178.537959 23.509849 171.299983 8.786958 192.132702 22.283517 184.290081 61.577583z" /><ellipse fill="#00329d" fill-opacity=".501961" cx="179" cy="74" rx="11" ry="27" /></g></svg>