<svg xmlns="http://www.w3.org/2000/svg" viewBox="0 0 2643 3524"><filter id="b"><feGaussianBlur stdDeviation="12" /></filter><path d="M0 0h2643v3524H0z" fill="#38424a" /><g filter="url(#b)" transform="scale(13.765625) translate(0.5 0.5)"><g transform="translate(133.926777 117.102121) rotate(260.710479) scale(31.490818 135.740179)"><ellipse fill="#7a99b1" fill-opacity=".501961" cx="0" cy="0" rx="1" ry="1" /></g><g transform="translate(14.949523 131.098176) rotate(164.202472) scale(28.459104 97.716612)"><ellipse fill="#b36f24" fill-opacity=".501961" cx="0" cy="0" rx="1" ry="1" /></g><g transform="translate(141.986278 199.489551) rotate(118.173016) scale(38.075795 97.309423)"><ellipse fill="#020000" fill-opacity=".501961" cx="0" cy="0" rx="1" ry="1" /></g><ellipse fill="#00040c" fill-opacity=".501961" cx="66" cy="20" rx="77" ry="49" /><path d="M0 0h2643v3524H0z" fill="#64a1d4" /><path fill="#ff922a" fill-opacity=".501961" d="M139.307463 221.120516 134.861203 261.512409 159.933812 271 155.269043 213.597853z" /><ellipse fill="#52beff" fill-opacity=".501961" cx="3" cy="189" rx="15" ry="15" /><g transform="translate(154.164805 112.991214) rotate(257.321166) scale(15.530629 11.393432)"><ellipse fill="#ffaa48" fill-opacity=".501961" cx="0" cy="0" rx="1" ry="1" /></g></g></svg>