<svg xmlns="http://www.w3.org/2000/svg" viewBox="0 0 4000 4000"><filter id="b"><feGaussianBlur stdDeviation="12" /></filter><path d="M0 0h4e3v4e3H0z" fill="#2a2a23" /><g filter="url(#b)" transform="scale(15.625000) translate(0.5 0.5)"><g transform="translate(113.992329 155.306978) rotate(86.952218) scale(51.638322 49.654173)"><ellipse fill="#cb6926" fill-opacity=".501961" cx="0" cy="0" rx="1" ry="1" /></g><ellipse fill="#004977" fill-opacity=".501961" cx="102" cy="22" rx="121" ry="55" /><g transform="translate(102.335859 191.407274) rotate(360.793920) scale(9.993676 27.403792)"><ellipse fill="#a4f4ff" fill-opacity=".501961" cx="0" cy="0" rx="1" ry="1" /></g><g transform="translate(37.422996 32.622306) rotate(-24.875822) scale(11.120906 12.526975)"><ellipse fill="#ffffe5" fill-opacity=".501961" cx="0" cy="0" rx="1" ry="1" /></g><ellipse fill="#120a02" fill-opacity=".501961" cx="192" cy="84" rx="116" ry="41" /><g transform="translate(0.000000 179.184958) rotate(89.332263) scale(126.020529 38.834959)"><ellipse fill="#000b00" fill-opacity=".501961" cx="0" cy="0" rx="1" ry="1" /></g><g transform="translate(221.462567 187.470285) rotate(82.636997) scale(106.897804 60.272705)"><ellipse fill="#391900" fill-opacity=".501961" cx="0" cy="0" rx="1" ry="1" /></g><path fill="#b43c00" fill-opacity=".501961" d="M210 127 96 158 74 104z" /></g></svg>