<svg xmlns="http://www.w3.org/2000/svg" viewBox="0 0 6000 2553"><filter id="b"><feGaussianBlur stdDeviation="12" /></filter><path d="M0 0h6e3v2553H0z" fill="#79888d" /><g filter="url(#b)" transform="scale(23.437500) translate(0.5 0.5)"><g transform="translate(252.381089 76.249141) rotate(97.416834) scale(54.574677 121.966924)"><ellipse fill="#040000" fill-opacity=".501961" cx="0" cy="0" rx="1" ry="1" /></g><ellipse fill="#fff" fill-opacity=".501961" cx="73" cy="0" rx="172" ry="32" /><g transform="translate(123.531178 5.057004) rotate(356.468813) scale(127.956896 23.887527)"><ellipse fill="#fff" fill-opacity=".501961" cx="0" cy="0" rx="1" ry="1" /></g><path d="M0 0h6e3v2553H0z" fill="#f7fde6" /><g transform="translate(63.538359 79.578836) rotate(177.602711) scale(32.082652 7.364976)"><ellipse fill="#150000" fill-opacity=".501961" cx="0" cy="0" rx="1" ry="1" /></g><g transform="translate(31.167786 51.959496) rotate(84.559342) scale(19.823901 97.639848)"><ellipse fill="#2ea2bf" fill-opacity=".501961" cx="0" cy="0" rx="1" ry="1" /></g><g transform="translate(191.858277 88.402881) rotate(326.745715) scale(17.920203 41.368710)"><ellipse fill="#00040e" fill-opacity=".501961" cx="0" cy="0" rx="1" ry="1" /></g><g transform="translate(196.469088 30.839818) rotate(73.879420) scale(11.703330 89.465968)"><ellipse fill="#5a5354" fill-opacity=".501961" cx="0" cy="0" rx="1" ry="1" /></g></g></svg>