<svg xmlns="http://www.w3.org/2000/svg" viewBox="0 0 6000 2553"><filter id="b"><feGaussianBlur stdDeviation="12" /></filter><path d="M0 0h6e3v2553H0z" fill="#464648" /><g filter="url(#b)" transform="scale(23.437500) translate(0.5 0.5)"><g transform="translate(244.247492 58.723219) rotate(182.258599) scale(15.263077 43.426410)"><ellipse fill="#fff7ff" fill-opacity=".501961" cx="0" cy="0" rx="1" ry="1" /></g><g transform="translate(23 57) rotate(359) scale(47 107)"><path d="M0 0h6e3v2553H0z" fill="#000" /></g><g transform="translate(201.008789 0.000000) rotate(185.045559) scale(77.329694 22.032892)"><ellipse fill="#0068cc" fill-opacity=".501961" cx="0" cy="0" rx="1" ry="1" /></g><path fill="#c48e5c" fill-opacity=".501961" d="M60 18l149-2L46 65z" /><ellipse fill="#1c0609" fill-opacity=".501961" cx="128" cy="97" rx="82" ry="31" /><g transform="translate(169.819670 35.084386) rotate(103.302968) scale(16.284684 28.986449)"><ellipse fill="#cb7c5a" fill-opacity=".501961" cx="0" cy="0" rx="1" ry="1" /></g><path d="M0 0h6e3v2553H0z" fill="#7278ad" /><g transform="translate(243 34) rotate(178) scale(27 27)"><path d="M0 0h6e3v2553H0z" fill="#ffe1cc" /></g></g></svg>