<svg xmlns="http://www.w3.org/2000/svg" viewBox="0 0 5697 2424"><filter id="b"><feGaussianBlur stdDeviation="12" /></filter><path d="M0 0h5697v2424H0z" fill="#704832" /><g filter="url(#b)" transform="scale(22.253906) translate(0.5 0.5)"><g transform="translate(181.322931 33.136343) rotate(-34.150011) scale(30.225903 53.151246)"><ellipse fill="#be9a8a" fill-opacity=".501961" cx="0" cy="0" rx="1" ry="1" /></g><ellipse fill="#ff8037" fill-opacity=".501961" cx="80" cy="54" rx="42" ry="21" /><ellipse fill="#2e1b10" fill-opacity=".501961" cx="92" cy="95" rx="255" ry="19" /><ellipse fill="#000005" fill-opacity=".501961" cx="226" cy="0" rx="8" ry="67" /><g transform="translate(95 17) rotate(354) scale(52 35)"><path d="M0 0h5697v2424H0z" fill="#1b0c00" /></g><g transform="translate(54.943339 20.756774) rotate(80.478484) scale(78.138783 14.099041)"><ellipse fill="#da5d12" fill-opacity=".501961" cx="0" cy="0" rx="1" ry="1" /></g><path fill="#c7f0fa" fill-opacity=".501961" d="M237.284289 9.820854 237.856498 66.910964 232.115783 62.592728 233.052165 27.384218z" /><g transform="translate(135.016503 58.845403) rotate(166.538085) scale(12.237351 25.515950)"><ellipse fill="#180600" fill-opacity=".501961" cx="0" cy="0" rx="1" ry="1" /></g></g></svg>