<svg xmlns="http://www.w3.org/2000/svg" viewBox="0 0 6000 2553"><filter id="b"><feGaussianBlur stdDeviation="12" /></filter><path d="M0 0h6e3v2553H0z" fill="#645e5d" /><g filter="url(#b)" transform="scale(23.437500) translate(0.5 0.5)"><g transform="translate(116.072346 13.461777) rotate(181.165757) scale(100.900665 35.878480)"><ellipse fill="#dfe6fa" fill-opacity=".501961" cx="0" cy="0" rx="1" ry="1" /></g><g transform="translate(150.302185 94.733394) rotate(263.859627) scale(41.466972 252.190910)"><ellipse fill="#170500" fill-opacity=".501961" cx="0" cy="0" rx="1" ry="1" /></g><g transform="translate(0.000000 55.448772) rotate(2.477310) scale(66.672717 17.240233)"><ellipse fill="#0f0300" fill-opacity=".501961" cx="0" cy="0" rx="1" ry="1" /></g><g transform="translate(233.211323 0.000000) rotate(115.546883) scale(11.570692 135.493056)"><ellipse fill="#ffc" fill-opacity=".501961" cx="0" cy="0" rx="1" ry="1" /></g><path fill="#856d69" fill-opacity=".501961" d="M251 0 22 86l119 5z" /><g transform="translate(230.055343 88.893059) rotate(149.144819) scale(95.138859 34.186335)"><ellipse fill="#000600" fill-opacity=".501961" cx="0" cy="0" rx="1" ry="1" /></g><g transform="translate(25.957815 16.521854) rotate(31.295860) scale(39.755792 23.298227)"><ellipse fill="#6c80a2" fill-opacity=".501961" cx="0" cy="0" rx="1" ry="1" /></g><g transform="translate(85.907507 31.855176) rotate(372.459494) scale(11.411244 22.797553)"><ellipse fill="#e3e1c5" fill-opacity=".501961" cx="0" cy="0" rx="1" ry="1" /></g></g></svg>