<svg xmlns="http://www.w3.org/2000/svg" viewBox="0 0 6000 4000"><filter id="b"><feGaussianBlur stdDeviation="12" /></filter><path d="M0 0h6e3v4e3H0z" fill="#4b4e4f" /><g filter="url(#b)" transform="scale(23.437500) translate(0.5 0.5)"><g transform="translate(152.032329 55.041815) rotate(-55.726380) scale(31.719206 59.619453)"><ellipse fill="#b7bcc5" fill-opacity=".501961" cx="0" cy="0" rx="1" ry="1" /></g><ellipse fill="#dabb85" fill-opacity=".501961" cx="50" cy="53" rx="42" ry="31" /><g transform="translate(78.887030 143.566515) rotate(308.390506) scale(64.197831 42.083110)"><ellipse fill="#003" fill-opacity=".501961" cx="0" cy="0" rx="1" ry="1" /></g><g transform="translate(226.567304 161.962265) rotate(188.952686) scale(40.229536 111.984573)"><ellipse fill="#201100" fill-opacity=".501961" cx="0" cy="0" rx="1" ry="1" /></g><g transform="translate(43.476264 2.280592) rotate(264.904133) scale(26.009903 64.618076)"><ellipse fill="#000" fill-opacity=".501961" cx="0" cy="0" rx="1" ry="1" /></g><ellipse fill="#d0a578" fill-opacity=".501961" cx="174" cy="82" rx="28" ry="47" /><g transform="translate(0 156) rotate(4) scale(35 71)"><path d="M0 0h6e3v4e3H0z" fill="#f14700" /></g><g transform="translate(129.347784 19.648292) rotate(281.181695) scale(20.706735 45.168215)"><ellipse fill="#0755a1" fill-opacity=".501961" cx="0" cy="0" rx="1" ry="1" /></g></g></svg>