<svg xmlns="http://www.w3.org/2000/svg" viewBox="0 0 5229 2225"><filter id="b"><feGaussianBlur stdDeviation="12" /></filter><path d="M0 0h5229v2225H0z" fill="#42413d" /><g filter="url(#b)" transform="scale(20.425781) translate(0.5 0.5)"><g transform="translate(162.987541 13.542172) rotate(338.045422) scale(50.072518 38.082193)"><ellipse fill="#b4a47d" fill-opacity=".501961" cx="0" cy="0" rx="1" ry="1" /></g><g transform="translate(24 34) rotate(68) scale(80 82)"><path d="M0 0h5229v2225H0z" fill="#000523" /></g><ellipse fill="#130404" fill-opacity=".501961" cx="223" cy="107" rx="41" ry="57" /><g transform="translate(63.690012 18.651836) rotate(73.497531) scale(9.385677 42.145634)"><ellipse fill="#497a9e" fill-opacity=".501961" cx="0" cy="0" rx="1" ry="1" /></g><g transform="translate(137 0) rotate(82) scale(24 36)"><path d="M0 0h5229v2225H0z" fill="#d3f6d3" /></g><g transform="translate(209.262802 2.823437) rotate(257.547669) scale(7.955095 83.186229)"><ellipse fill="#053d6b" fill-opacity=".501961" cx="0" cy="0" rx="1" ry="1" /></g><path fill="#b17f55" fill-opacity=".501961" d="M145 18 129 65 265 13z" /><path d="M0 0h5229v2225H0z" fill="#1a0c01" /></g></svg>