<svg xmlns="http://www.w3.org/2000/svg" viewBox="0 0 4000 4000"><filter id="b"><feGaussianBlur stdDeviation="12" /></filter><path d="M0 0h4e3v4e3H0z" fill="#816f6b" /><g filter="url(#b)" transform="scale(15.625000) translate(0.5 0.5)"><g transform="translate(111.898052 234.766609) rotate(0.974185) scale(255.000000 46.461754)"><ellipse fill="#000036" fill-opacity=".501961" cx="0" cy="0" rx="1" ry="1" /></g><g transform="translate(143.779118 77.875866) rotate(96.194066) scale(86.509315 129.365975)"><ellipse fill="#f2a982" fill-opacity=".501961" cx="0" cy="0" rx="1" ry="1" /></g><g transform="translate(137.137563 240.019323) rotate(179.017300) scale(255.000000 22.420952)"><ellipse fill="#000324" fill-opacity=".501961" cx="0" cy="0" rx="1" ry="1" /></g><g transform="translate(117.915594 199.934653) rotate(272.418136) scale(24.190767 97.041492)"><ellipse fill="#258ead" fill-opacity=".501961" cx="0" cy="0" rx="1" ry="1" /></g><g transform="translate(220.520673 233.128814) rotate(247.207022) scale(27.978208 111.190136)"><ellipse fill="#000723" fill-opacity=".501961" cx="0" cy="0" rx="1" ry="1" /></g><g transform="translate(68.665445 254.935633) rotate(33.854878) scale(141.058521 27.022579)"><ellipse fill="#000e2d" fill-opacity=".501961" cx="0" cy="0" rx="1" ry="1" /></g><g transform="translate(144.560195 68.587012) rotate(273.063595) scale(41.796674 71.114504)"><ellipse fill="#dba583" fill-opacity=".501961" cx="0" cy="0" rx="1" ry="1" /></g><g transform="translate(37.467160 92.052165) rotate(403.567367) scale(145.840054 34.748225)"><ellipse fill="#a17c7a" fill-opacity=".501961" cx="0" cy="0" rx="1" ry="1" /></g></g></svg>