<svg xmlns="http://www.w3.org/2000/svg" viewBox="0 0 5732 2439"><filter id="b"><feGaussianBlur stdDeviation="12" /></filter><path d="M0 0h5732v2439H0z" fill="#303c4f" /><g filter="url(#b)" transform="scale(22.390625) translate(0.5 0.5)"><g transform="translate(124.616280 23.728920) rotate(363.797452) scale(13.940093 39.756392)"><ellipse fill="#b1ecff" fill-opacity=".501961" cx="0" cy="0" rx="1" ry="1" /></g><g transform="translate(28.187725 81.853228) rotate(170.687255) scale(53.213613 89.141687)"><ellipse fill="#0d0000" fill-opacity=".501961" cx="0" cy="0" rx="1" ry="1" /></g><g transform="translate(212.261705 18.791237) rotate(281.905239) scale(56.759083 24.988921)"><ellipse fill="#7592b0" fill-opacity=".501961" cx="0" cy="0" rx="1" ry="1" /></g><g transform="translate(148.523132 73.657655) rotate(76.083518) scale(35.765934 23.418014)"><ellipse fill="#000" fill-opacity=".501961" cx="0" cy="0" rx="1" ry="1" /></g><path fill="#7ffbff" fill-opacity=".501961" d="M76.442541-12.536154 50.658249-6.837365 50.66439 9.388625 76.398259 18.54792z" /><path fill="#c2ffff" fill-opacity=".501961" d="M229.953266 7.926442 207.569964 17.518982 229.800335-16 248.51188 2.138193z" /><g transform="translate(70 45) rotate(185) scale(56 40)"><path d="M0 0h5732v2439H0z" fill="#5f5581" /></g><path fill="#4590df" fill-opacity=".501961" d="M147.245841 16.913263 83.946974-16 94.186625 17.64646l48.412638 24.729832z" /></g></svg>