<svg xmlns="http://www.w3.org/2000/svg" viewBox="0 0 5903 2512"><filter id="b"><feGaussianBlur stdDeviation="12" /></filter><path d="M0 0h5903v2512H0z" fill="#444744" /><g filter="url(#b)" transform="scale(23.058594) translate(0.5 0.5)"><g transform="translate(85.808256 97.018263) rotate(123.694786) scale(92.890025 45.612501)"><ellipse fill="#9f8f81" fill-opacity=".501961" cx="0" cy="0" rx="1" ry="1" /></g><g transform="translate(49.503688 0.000000) rotate(350.487520) scale(132.107020 26.123217)"><ellipse fill="#000" fill-opacity=".501961" cx="0" cy="0" rx="1" ry="1" /></g><g transform="translate(229.486773 29.447726) rotate(67.109842) scale(191.700436 37.518872)"><ellipse fill="#020f13" fill-opacity=".501961" cx="0" cy="0" rx="1" ry="1" /></g><path fill="#e0d4bc" fill-opacity=".501961" d="M65 66l54 57L86 55z" /><path fill="#3e2415" fill-opacity=".501961" d="M206.795363 34.221111 108.206434 83.332952 69.401349 36.835555 196.111541 70.454036z" /><g transform="translate(151 44) rotate(262) scale(16 72)"><path d="M0 0h5903v2512H0z" fill="#5daad7" /></g><ellipse fill="#000b16" fill-opacity=".501961" cx="160" cy="23" rx="23" ry="13" /><path d="M0 0h5903v2512H0z" fill="#8f8163" /></g></svg>