<svg xmlns="http://www.w3.org/2000/svg" viewBox="0 0 6000 2553"><filter id="b"><feGaussianBlur stdDeviation="12" /></filter><path d="M0 0h6e3v2553H0z" fill="#43423a" /><g filter="url(#b)" transform="scale(23.437500) translate(0.5 0.5)"><path d="M0 0h6e3v2553H0z" fill="#c3aa69" /><g transform="translate(245.267457 23.820632) rotate(97.413132) scale(38.786464 24.435973)"><ellipse fill="#000" fill-opacity=".501961" cx="0" cy="0" rx="1" ry="1" /></g><ellipse fill="#759d6a" fill-opacity=".501961" cx="116" cy="54" rx="56" ry="23" /><g transform="translate(33.368146 23.903853) rotate(224.444055) scale(28.731364 45.645310)"><ellipse fill="#060017" fill-opacity=".501961" cx="0" cy="0" rx="1" ry="1" /></g><path d="M0 0h6e3v2553H0z" fill="#96848b" /><g transform="translate(143.149987 14.432692) rotate(194.355384) scale(32.514330 38.303260)"><ellipse fill="#004221" fill-opacity=".501961" cx="0" cy="0" rx="1" ry="1" /></g><g transform="translate(15.444791 104.641303) rotate(-34.657113) scale(60.751341 21.820394)"><ellipse fill="#450003" fill-opacity=".501961" cx="0" cy="0" rx="1" ry="1" /></g><g transform="translate(204.576568 55.477432) rotate(-61.510418) scale(21.559742 19.877436)"><ellipse fill="#674c00" fill-opacity=".501961" cx="0" cy="0" rx="1" ry="1" /></g></g></svg>